<svg width="16" height="16" viewBox="0 0 16 16" fill="none" xmlns="http://www.w3.org/2000/svg">
<path d="M14.25 10.9376C14.1929 10.9702 14.1299 10.9911 14.0647 10.9993C13.9994 11.0075 13.9332 11.0028 13.8698 10.9854C13.8064 10.968 13.7471 10.9382 13.6952 10.8978C13.6433 10.8575 13.5999 10.8073 13.5675 10.7501L12.38 8.67509C11.6896 9.14189 10.928 9.49355 10.125 9.71634L10.4918 11.9176C10.5027 11.9824 10.5006 12.0487 10.4858 12.1127C10.471 12.1767 10.4437 12.2372 10.4055 12.2906C10.3673 12.3441 10.319 12.3895 10.2632 12.4243C10.2075 12.459 10.1454 12.4825 10.0806 12.4932C10.0539 12.4976 10.027 12.4999 9.99997 12.5001C9.88168 12.4999 9.76729 12.4578 9.67712 12.3813C9.58695 12.3047 9.52684 12.1987 9.50747 12.082L9.14684 9.92072C8.38634 10.0265 7.61485 10.0265 6.85434 9.92072L6.49372 12.082C6.47431 12.1989 6.41402 12.3051 6.32359 12.3817C6.23316 12.4582 6.11847 12.5002 5.99997 12.5001C5.97233 12.5 5.94474 12.4977 5.91747 12.4932C5.85266 12.4825 5.7906 12.459 5.73485 12.4243C5.6791 12.3895 5.63074 12.3441 5.59255 12.2906C5.55435 12.2372 5.52707 12.1767 5.51226 12.1127C5.49745 12.0487 5.49539 11.9824 5.50622 11.9176L5.87497 9.71634C5.07224 9.49284 4.31109 9.14055 3.62122 8.67322L2.43747 10.7501C2.37116 10.8656 2.26168 10.9501 2.1331 10.9849C2.00452 11.0197 1.86738 11.002 1.75184 10.9357C1.63631 10.8694 1.55184 10.7599 1.51703 10.6313C1.48222 10.5028 1.49991 10.3656 1.56622 10.2501L2.81622 8.06259C2.37716 7.68327 1.97342 7.26489 1.60997 6.81259C1.56464 6.76199 1.53011 6.70267 1.50847 6.63827C1.48683 6.57387 1.47854 6.50574 1.4841 6.43803C1.48967 6.37032 1.50898 6.30446 1.54085 6.24446C1.57272 6.18446 1.61648 6.13159 1.66946 6.08906C1.72245 6.04654 1.78354 6.01526 1.84902 5.99713C1.91449 5.97901 1.98297 5.97441 2.05028 5.98363C2.11759 5.99286 2.18232 6.0157 2.2405 6.05076C2.29869 6.08583 2.34912 6.13239 2.38872 6.18759C3.42622 7.47134 5.24122 9.00009 7.99997 9.00009C10.7587 9.00009 12.5737 7.46947 13.6112 6.18759C13.6504 6.13126 13.7007 6.08358 13.759 6.04752C13.8174 6.01147 13.8826 5.98781 13.9505 5.97802C14.0184 5.96823 14.0875 5.97251 14.1537 5.99061C14.2199 6.0087 14.2816 6.04022 14.3351 6.0832C14.3886 6.12618 14.4326 6.1797 14.4645 6.24044C14.4964 6.30117 14.5155 6.36782 14.5205 6.43624C14.5255 6.50465 14.5164 6.57337 14.4937 6.63812C14.4711 6.70286 14.4353 6.76225 14.3887 6.81259C14.0253 7.26489 13.6215 7.68327 13.1825 8.06259L14.4325 10.2501C14.466 10.3071 14.4879 10.3702 14.4969 10.4358C14.5059 10.5013 14.5018 10.568 14.4848 10.632C14.4678 10.6959 14.4383 10.7558 14.398 10.8083C14.3577 10.8608 14.3074 10.9047 14.25 10.9376Z" fill="white"/>
</svg>
