<svg width="25" height="24" viewBox="0 0 25 24" fill="none" xmlns="http://www.w3.org/2000/svg">
<g id="heroicons-solid/home">
<g id="Union">
<path d="M11.9697 3.84076C12.2626 3.54787 12.7374 3.54787 13.0303 3.84076L21.7197 12.5301C22.0126 12.823 22.4874 12.823 22.7803 12.5301C23.0732 12.2372 23.0732 11.7623 22.7803 11.4694L14.091 2.7801C13.2123 1.90142 11.7877 1.90142 10.909 2.7801L2.21967 11.4694C1.92678 11.7623 1.92678 12.2372 2.21967 12.5301C2.51256 12.823 2.98744 12.823 3.28033 12.5301L11.9697 3.84076Z" fill="#B18D41"/>
<path d="M12.5 5.43176L20.659 13.5908C20.6887 13.6205 20.7191 13.6492 20.75 13.6769V19.8748C20.75 20.9103 19.9105 21.7498 18.875 21.7498H15.5C15.0858 21.7498 14.75 21.414 14.75 20.9998V16.4998C14.75 16.0856 14.4142 15.7498 14 15.7498H11C10.5858 15.7498 10.25 16.0856 10.25 16.4998V20.9998C10.25 21.414 9.91421 21.7498 9.5 21.7498H6.125C5.08947 21.7498 4.25 20.9103 4.25 19.8748V13.6769C4.28093 13.6492 4.31127 13.6205 4.34099 13.5908L12.5 5.43176Z" fill="#B18D41"/>
</g>
</g>
</svg>
