<svg width="25" height="24" viewBox="0 0 25 24" fill="none" xmlns="http://www.w3.org/2000/svg">
<g id="heroicons-outline/inbox">
<path id="Vector" d="M2.75 13.5H6.60942C7.46166 13.5 8.24075 13.9815 8.62188 14.7438L8.87812 15.2562C9.25925 16.0185 10.0383 16.5 10.8906 16.5H14.1094C14.9617 16.5 15.7408 16.0185 16.1219 15.2562L16.3781 14.7438C16.7592 13.9815 17.5383 13.5 18.3906 13.5H22.25M2.75 13.8383V18C2.75 19.2426 3.75736 20.25 5 20.25H20C21.2426 20.25 22.25 19.2426 22.25 18V13.8383C22.25 13.614 22.2165 13.391 22.1505 13.1766L19.7387 5.33831C19.4482 4.39423 18.576 3.75 17.5882 3.75H7.41179C6.42403 3.75 5.55178 4.39423 5.26129 5.33831L2.8495 13.1766C2.78354 13.391 2.75 13.614 2.75 13.8383Z" stroke="#C2C2C2" stroke-width="1.5" stroke-linecap="round" stroke-linejoin="round"/>
</g>
</svg>
